<svg xmlns="http://www.w3.org/2000/svg" viewBox="0 0 24 24">
  <path fill="#1DA1F2" d="M22 5.92c-.63.28-1.3.47-2 .56.72-.43 1.27-1.1 1.53-1.9-.68.4-1.44.7-2.24.86A3.5 3.5 0 0016.16 4c-1.93 0-3.5 1.62-3.5 3.62 0 .28.03.55.09.81C9.69 8.28 6.2 6.5 3.9 3.7c-.31.52-.49 1.12-.49 1.76 0 1.22.96 2.24 2.15 2.55-.57-.02-1.1-.18-1.57-.44v.04c0 1.7 1.24 3.12 2.88 3.45-.48.13-.99.19-1.52.19-.37 0-.74-.04-1.1-.1.74 2.42 2.89 4.2 5.44 4.25A7.04 7.04 0 012 19.54 9.85 9.85 0 008.86 21c6.04 0 9.35-5.03 9.35-9.39v-.43c.64-.45 1.2-1.02 1.64-1.66-.6.27-1.24.45-1.9.53z"/>
</svg>
